# xmcd CD database file
#
# Track frame offsets:
#	150
#	17196
#	32925
#	46883
#	66648
#	82879
#	103855
#	124466
#	141562
#	164850
#	178887
#	199364
#
# Disc length: 2943 seconds
#
# Revision: 0
# Processed by: cddbd v1.5.2PL0 Copyright (c) Steve Scherf et al.
# Submitted via: CDex 1.51
#
DISCID=c30b7d0c
DTITLE=Stephen Kummer - Jazz for Lovers
DYEAR=2006
DGENRE=Jazz
TTITLE0=Let's Fall In Love
TTITLE1=Dearly Beloved
TTITLE2=Love Letters
TTITLE3=The Way You Look Tonight
TTITLE4=The More I See You
TTITLE5=People Will Say We're in Love
TTITLE6=At Last
TTITLE7=An Affair to Remember
TTITLE8=Blame It on My Youth
TTITLE9=Because of You
TTITLE10=But Not for Me
TTITLE11=That's All
EXTD=YEAR: 2006
EXTT0=
EXTT1=
EXTT2=
EXTT3=
EXTT4=
EXTT5=
EXTT6=
EXTT7=
EXTT8=
EXTT9=
EXTT10=
EXTT11=
PLAYORDER=
